<svg xmlns="http://www.w3.org/2000/svg" viewBox="0 0 256 256" clip-path="url(#clip)" width="460" height="460"><defs><clipPath id="clip" clipPathUnits="objectBoundingBox"><rect x="0" y="0" width="256" height="256"/></clipPath></defs><rect x="0" y="0" width="256" height="256" fill="rgb(152, 79, 94)"/><path d="M175,41L303,54L196,111Z" fill="rgb(239, 233, 200)" fill-opacity="0.80"/><path d="M281,222L179,209L252,268Z" fill="rgb(255, 208, 210)" fill-opacity="0.69"/><path d="M297,405L97,197L-77,231Z" fill="rgb(7, 7, 12)" fill-opacity="0.89"/><path d="M-3,214L95,189L-5,180Z" fill="rgb(255, 221, 125)" fill-opacity="0.62"/><path d="M20,-3L3,86L-39,3Z" fill="rgb(255, 220, 246)" fill-opacity="0.82"/><path d="M80,84L65,76L97,7Z" fill="rgb(245, 163, 247)" fill-opacity="0.59"/><path d="M-94,172L72,1L70,185Z" fill="rgb(176, 0, 44)" fill-opacity="0.62"/><path d="M196,228L140,254L243,265Z" fill="rgb(23, 8, 31)" fill-opacity="0.68"/><path d="M257,183L229,274L269,239Z" fill="rgb(255, 205, 255)" fill-opacity="0.54"/><path d="M102,196L80,92L9,135Z" fill="rgb(255, 31, 191)" fill-opacity="0.45"/><path d="M245,93L252,146L327,39Z" fill="rgb(252, 187, 250)" fill-opacity="0.58"/><path d="M94,-49L193,88L99,253Z" fill="rgb(85, 32, 76)" fill-opacity="0.58"/><path d="M260,56L205,45L258,-44Z" fill="rgb(197, 165, 87)" fill-opacity="0.60"/><path d="M95,12L149,5L91,26Z" fill="rgb(255, 226, 255)" fill-opacity="0.42"/><path d="M79,28L6,26L60,106Z" fill="rgb(92, 3, 15)" fill-opacity="0.54"/><path d="M188,258L109,230L171,113Z" fill="rgb(120, 45, 101)" fill-opacity="0.68"/><path d="M479,244L172,101L181,193Z" fill="rgb(254, 65, 67)" fill-opacity="0.55"/><path d="M85,23L16,29L19,-42Z" fill="rgb(214, 20, 90)" fill-opacity="0.68"/><path d="M254,143L221,88L194,103Z" fill="rgb(179, 86, 47)" fill-opacity="0.58"/><path d="M253,75L202,85L225,37Z" fill="rgb(254, 255, 251)" fill-opacity="0.60"/><path d="M213,185L246,216L178,207Z" fill="rgb(112, 14, 5)" fill-opacity="0.54"/><path d="M87,36L161,30L130,16Z" fill="rgb(11, 21, 19)" fill-opacity="0.53"/><path d="M110,11L134,7L171,28Z" fill="rgb(199, 184, 236)" fill-opacity="0.49"/><path d="M2,95L80,103L-10,180Z" fill="rgb(220, 20, 70)" fill-opacity="0.73"/><path d="M106,172L66,127L76,178Z" fill="rgb(220, 84, 255)" fill-opacity="0.51"/><path d="M175,149L194,150L184,222Z" fill="rgb(224, 163, 176)" fill-opacity="0.38"/><path d="M187,381L95,196L66,198Z" fill="rgb(17, 15, 18)" fill-opacity="0.73"/><path d="M-1,204L-48,170L73,188Z" fill="rgb(237, 184, 51)" fill-opacity="0.91"/><path d="M65,168L-50,169L83,189Z" fill="rgb(87, 28, 16)" fill-opacity="0.63"/><path d="M241,109L278,60L220,98Z" fill="rgb(174, 159, 94)" fill-opacity="0.71"/><path d="M53,195L57,205L42,213Z" fill="rgb(0, 0, 24)" fill-opacity="0.56"/><path d="M224,-84L135,2L194,50Z" fill="rgb(104, 34, 2)" fill-opacity="0.47"/><path d="M52,194L59,208L86,188Z" fill="rgb(181, 127, 242)" fill-opacity="0.46"/><path d="M3,35L25,33L14,23Z" fill="rgb(255, 44, 133)" fill-opacity="0.48"/><path d="M162,30L129,34L176,51Z" fill="rgb(63, 40, 48)" fill-opacity="0.61"/><path d="M74,77L35,14L-5,99Z" fill="rgb(118, 16, 32)" fill-opacity="0.69"/><path d="M2,-5L24,10L-17,55Z" fill="rgb(255, 255, 255)" fill-opacity="0.47"/><path d="M219,247L243,225L188,219Z" fill="rgb(208, 115, 129)" fill-opacity="0.67"/><path d="M197,122L189,102L209,63Z" fill="rgb(207, 185, 172)" fill-opacity="0.63"/><path d="M94,208L195,227L73,174Z" fill="rgb(129, 50, 108)" fill-opacity="0.58"/><path d="M79,123L70,68L86,85Z" fill="rgb(219, 80, 186)" fill-opacity="0.69"/><path d="M81,20L19,5L80,35Z" fill="rgb(255, 64, 185)" fill-opacity="0.29"/><path d="M76,179L81,191L95,183Z" fill="rgb(100, 27, 0)" fill-opacity="0.59"/><path d="M1,-20L83,24L145,-21Z" fill="rgb(159, 39, 68)" fill-opacity="0.94"/><path d="M82,68L98,182L156,82Z" fill="rgb(100, 32, 84)" fill-opacity="0.64"/><path d="M14,67L-3,69L-40,120Z" fill="rgb(220, 189, 227)" fill-opacity="0.52"/><path d="M186,57L150,17L175,35Z" fill="rgb(213, 201, 215)" fill-opacity="0.56"/><path d="M196,-19L202,32L310,2Z" fill="rgb(204, 71, 59)" fill-opacity="0.38"/><path d="M67,98L88,47L84,121Z" fill="rgb(200, 52, 169)" fill-opacity="0.41"/><path d="M99,175L80,137L86,181Z" fill="rgb(219, 100, 246)" fill-opacity="0.52"/><path d="M249,233L252,262L219,244Z" fill="rgb(250, 221, 228)" fill-opacity="0.51"/><path d="M88,20L103,15L74,62Z" fill="rgb(246, 216, 255)" fill-opacity="0.49"/><path d="M195,79L229,147L216,88Z" fill="rgb(154, 93, 24)" fill-opacity="0.32"/><path d="M-38,239L45,195L-4,205Z" fill="rgb(202, 144, 253)" fill-opacity="0.62"/><path d="M-11,113L11,36L12,60Z" fill="rgb(237, 207, 244)" fill-opacity="0.41"/><path d="M9,206L37,213L60,192Z" fill="rgb(197, 141, 255)" fill-opacity="0.42"/><path d="M151,126L157,170L102,156Z" fill="rgb(56, 29, 4)" fill-opacity="0.29"/><path d="M234,52L173,39L247,23Z" fill="rgb(145, 175, 77)" fill-opacity="0.36"/><path d="M193,65L236,93L250,55Z" fill="rgb(252, 255, 240)" fill-opacity="0.56"/><path d="M6,223L10,209L-38,215Z" fill="rgb(45, 11, 101)" fill-opacity="0.37"/><path d="M80,79L190,75L90,36Z" fill="rgb(125, 51, 99)" fill-opacity="0.70"/><path d="M201,183L172,204L226,216Z" fill="rgb(121, 35, 47)" fill-opacity="0.44"/><path d="M199,101L211,129L212,101Z" fill="rgb(164, 59, 86)" fill-opacity="0.66"/><path d="M38,130L24,167L-61,135Z" fill="rgb(219, 23, 84)" fill-opacity="0.79"/><path d="M205,138L247,163L249,105Z" fill="rgb(204, 59, 52)" fill-opacity="0.61"/><path d="M180,200L198,177L177,133Z" fill="rgb(218, 128, 134)" fill-opacity="0.58"/><path d="M174,262L154,243L102,226Z" fill="rgb(55, 24, 45)" fill-opacity="0.63"/><path d="M160,176L130,181L132,160Z" fill="rgb(112, 116, 90)" fill-opacity="0.52"/><path d="M173,148L199,122L177,39Z" fill="rgb(153, 89, 109)" fill-opacity="0.45"/><path d="M213,94L215,40L231,88Z" fill="rgb(247, 255, 235)" fill-opacity="0.44"/><path d="M82,62L71,59L75,76Z" fill="rgb(252, 183, 255)" fill-opacity="0.46"/><path d="M19,168L6,178L-27,144Z" fill="rgb(106, 33, 16)" fill-opacity="0.55"/><path d="M191,-3L181,47L234,25Z" fill="rgb(139, 71, 45)" fill-opacity="0.50"/><path d="M59,13L11,27L29,-6Z" fill="rgb(230, 29, 100)" fill-opacity="0.58"/><path d="M48,202L50,227L56,196Z" fill="rgb(13, 12, 18)" fill-opacity="0.60"/><path d="M234,42L250,66L219,90Z" fill="rgb(252, 254, 241)" fill-opacity="0.38"/><path d="M251,186L256,194L227,192Z" fill="rgb(255, 117, 95)" fill-opacity="0.46"/><path d="M239,183L247,219L217,214Z" fill="rgb(173, 31, 31)" fill-opacity="0.43"/><path d="M246,130L368,109L252,90Z" fill="rgb(242, 169, 255)" fill-opacity="0.41"/><path d="M183,207L188,221L197,210Z" fill="rgb(233, 199, 143)" fill-opacity="0.58"/><path d="M203,228L89,191L116,229Z" fill="rgb(133, 52, 112)" fill-opacity="0.56"/><path d="M54,170L70,156L80,179Z" fill="rgb(161, 36, 154)" fill-opacity="0.56"/><path d="M106,103L79,125L96,165Z" fill="rgb(125, 30, 101)" fill-opacity="0.56"/><path d="M212,46L216,32L254,51Z" fill="rgb(167, 184, 116)" fill-opacity="0.61"/><path d="M76,53L92,35L80,59Z" fill="rgb(255, 201, 255)" fill-opacity="0.40"/><path d="M7,97L73,102L55,69Z" fill="rgb(167, 12, 47)" fill-opacity="0.63"/><path d="M164,280L232,261L195,226Z" fill="rgb(14, 16, 8)" fill-opacity="0.46"/><path d="M251,250L256,234L256,288Z" fill="rgb(191, 80, 249)" fill-opacity="0.42"/><path d="M125,9L201,3L94,-7Z" fill="rgb(142, 47, 54)" fill-opacity="0.81"/><path d="M246,108L211,106L231,96Z" fill="rgb(158, 109, 64)" fill-opacity="0.82"/><path d="M100,186L60,158L90,151Z" fill="rgb(217, 98, 244)" fill-opacity="0.37"/><path d="M89,189L54,199L97,192Z" fill="rgb(194, 134, 196)" fill-opacity="0.61"/><path d="M196,59L180,43L197,109Z" fill="rgb(234, 212, 206)" fill-opacity="0.78"/><path d="M79,38L32,23L49,21Z" fill="rgb(111, 20, 34)" fill-opacity="0.62"/><path d="M276,244L247,215L269,193Z" fill="rgb(254, 168, 253)" fill-opacity="0.54"/><path d="M71,152L85,125L59,95Z" fill="rgb(219, 18, 92)" fill-opacity="0.47"/><path d="M268,15L213,11L177,-132Z" fill="rgb(225, 101, 123)" fill-opacity="0.34"/><path d="M47,209L12,212L-16,222Z" fill="rgb(59, 31, 44)" fill-opacity="0.59"/><path d="M-56,247L86,201L198,303Z" fill="rgb(8, 9, 11)" fill-opacity="0.60"/><path d="M11,68L25,18L43,21Z" fill="rgb(156, 11, 41)" fill-opacity="0.51"/><path d="M246,79L253,59L288,69Z" fill="rgb(241, 149, 139)" fill-opacity="0.61"/><path d="M236,238L242,223L190,225Z" fill="rgb(220, 125, 123)" fill-opacity="0.48"/><path d="M230,41L237,6L276,72Z" fill="rgb(181, 154, 88)" fill-opacity="0.62"/><path d="M187,241L176,241L188,220Z" fill="rgb(147, 51, 117)" fill-opacity="0.55"/><path d="M224,247L207,233L229,243Z" fill="rgb(214, 155, 215)" fill-opacity="0.50"/><path d="M11,107L79,30L8,68Z" fill="rgb(114, 16, 30)" fill-opacity="0.60"/><path d="M80,95L125,113L112,78Z" fill="rgb(85, 28, 72)" fill-opacity="0.50"/><path d="M398,139L215,196L181,151Z" fill="rgb(242, 52, 61)" fill-opacity="0.35"/><path d="M61,145L21,144L70,105Z" fill="rgb(216, 28, 97)" fill-opacity="0.68"/><path d="M243,260L214,240L233,259Z" fill="rgb(93, 48, 129)" fill-opacity="0.49"/><path d="M76,86L78,117L85,120Z" fill="rgb(235, 117, 210)" fill-opacity="0.60"/><path d="M249,141L244,101L274,175Z" fill="rgb(223, 73, 190)" fill-opacity="0.37"/><path d="M31,3L67,15L51,-57Z" fill="rgb(159, 0, 3)" fill-opacity="0.26"/><path d="M229,95L198,98L205,81Z" fill="rgb(185, 180, 101)" fill-opacity="0.46"/><path d="M86,77L83,57L69,99Z" fill="rgb(218, 74, 191)" fill-opacity="0.40"/><path d="M191,87L202,110L193,119Z" fill="rgb(219, 189, 192)" fill-opacity="0.55"/><path d="M66,142L68,159L90,148Z" fill="rgb(221, 60, 200)" fill-opacity="0.69"/><path d="M107,216L75,196L90,194Z" fill="rgb(47, 27, 36)" fill-opacity="0.54"/><path d="M95,167L104,168L88,148Z" fill="rgb(162, 58, 176)" fill-opacity="0.45"/><path d="M222,188L258,201L182,203Z" fill="rgb(167, 24, 21)" fill-opacity="0.35"/><path d="M203,188L201,129L184,158Z" fill="rgb(218, 78, 97)" fill-opacity="0.60"/><path d="M67,207L56,209L74,198Z" fill="rgb(90, 43, 58)" fill-opacity="0.54"/><path d="M7,27L10,46L30,8Z" fill="rgb(244, 66, 142)" fill-opacity="0.34"/><path d="M150,130L163,29L189,80Z" fill="rgb(121, 70, 85)" fill-opacity="0.65"/><path d="M136,6L144,12L140,18Z" fill="rgb(204, 175, 225)" fill-opacity="0.55"/><path d="M140,34L101,26L123,16Z" fill="rgb(47, 32, 36)" fill-opacity="0.56"/><path d="M17,194L23,178L-13,189Z" fill="rgb(255, 253, 32)" fill-opacity="0.39"/><path d="M244,104L263,116L269,75Z" fill="rgb(232, 226, 226)" fill-opacity="0.39"/><path d="M205,221L224,224L195,207Z" fill="rgb(238, 218, 159)" fill-opacity="0.44"/><path d="M253,14L303,32L229,-19Z" fill="rgb(226, 125, 134)" fill-opacity="0.44"/><path d="M212,50L200,55L164,35Z" fill="rgb(205, 168, 143)" fill-opacity="0.58"/><path d="M174,171L188,166L177,156Z" fill="rgb(225, 141, 145)" fill-opacity="0.51"/><path d="M35,146L18,158L63,159Z" fill="rgb(217, 30, 144)" fill-opacity="0.34"/><path d="M207,69L197,92L199,56Z" fill="rgb(208, 187, 141)" fill-opacity="0.49"/><path d="M243,22L199,47L184,37Z" fill="rgb(146, 117, 69)" fill-opacity="0.49"/><path d="M17,6L11,-7L47,1Z" fill="rgb(215, 28, 83)" fill-opacity="0.65"/><path d="M167,33L196,11L187,40Z" fill="rgb(111, 54, 42)" fill-opacity="0.44"/><path d="M245,105L227,131L205,108Z" fill="rgb(165, 68, 64)" fill-opacity="0.62"/><path d="M201,20L128,0L176,33Z" fill="rgb(100, 49, 52)" fill-opacity="0.50"/><path d="M195,210L200,198L249,218Z" fill="rgb(102, 48, 48)" fill-opacity="0.42"/><path d="M6,36L-13,34L14,18Z" fill="rgb(239, 199, 225)" fill-opacity="0.62"/><path d="M13,213L37,202L-7,203Z" fill="rgb(227, 170, 227)" fill-opacity="0.56"/><path d="M59,116L-34,142L19,87Z" fill="rgb(212, 15, 52)" fill-opacity="0.33"/><path d="M179,155L172,90L146,115Z" fill="rgb(132, 51, 94)" fill-opacity="0.65"/><path d="M59,83L40,19L76,54Z" fill="rgb(95, 21, 29)" fill-opacity="0.50"/><path d="M70,73L82,78L69,66Z" fill="rgb(219, 156, 210)" fill-opacity="0.48"/><path d="M22,166L43,157L79,181Z" fill="rgb(143, 21, 46)" fill-opacity="0.75"/><path d="M79,115L50,136L56,91Z" fill="rgb(203, 27, 74)" fill-opacity="0.34"/><path d="M172,250L126,239L198,225Z" fill="rgb(120, 44, 99)" fill-opacity="0.51"/><path d="M103,4L138,12L88,23Z" fill="rgb(237, 158, 198)" fill-opacity="0.31"/><path d="M190,83L176,46L172,113Z" fill="rgb(130, 78, 85)" fill-opacity="0.51"/><path d="M13,216L44,207L35,218Z" fill="rgb(82, 35, 39)" fill-opacity="0.39"/><path d="M154,-3L97,14L99,-9Z" fill="rgb(163, 57, 71)" fill-opacity="0.63"/><path d="M42,196L-3,215L82,188Z" fill="rgb(221, 154, 232)" fill-opacity="0.52"/><path d="M73,189L2,173L98,181Z" fill="rgb(88, 30, 15)" fill-opacity="0.52"/><path d="M133,256L194,249L228,256Z" fill="rgb(21, 17, 18)" fill-opacity="0.42"/><path d="M150,23L122,19L162,32Z" fill="rgb(47, 33, 44)" fill-opacity="0.56"/><path d="M192,209L257,224L220,223Z" fill="rgb(250, 214, 156)" fill-opacity="0.49"/><path d="M92,24L118,15L108,25Z" fill="rgb(144, 68, 60)" fill-opacity="0.44"/><path d="M150,36L124,51L157,64Z" fill="rgb(124, 50, 102)" fill-opacity="0.57"/><path d="M261,199L242,192L244,182Z" fill="rgb(250, 141, 116)" fill-opacity="0.48"/><path d="M181,133L198,123L189,101Z" fill="rgb(184, 98, 117)" fill-opacity="0.67"/><path d="M132,118L98,189L125,195Z" fill="rgb(86, 25, 70)" fill-opacity="0.40"/><path d="M74,77L69,101L14,92Z" fill="rgb(160, 9, 48)" fill-opacity="0.59"/><path d="M34,56L19,33L4,84Z" fill="rgb(150, 25, 52)" fill-opacity="0.49"/><path d="M207,175L184,159L198,186Z" fill="rgb(228, 102, 99)" fill-opacity="0.52"/><path d="M-13,205L15,191L47,195Z" fill="rgb(239, 173, 49)" fill-opacity="0.65"/><path d="M88,47L69,76L92,18Z" fill="rgb(240, 187, 244)" fill-opacity="0.48"/><path d="M121,218L103,222L130,234Z" fill="rgb(114, 50, 66)" fill-opacity="0.51"/><path d="M100,39L93,143L84,57Z" fill="rgb(116, 39, 99)" fill-opacity="0.72"/><path d="M226,138L248,176L249,126Z" fill="rgb(203, 64, 47)" fill-opacity="0.55"/><path d="M200,24L229,16L196,37Z" fill="rgb(126, 53, 29)" fill-opacity="0.27"/><path d="M75,87L75,98L78,94Z" fill="rgb(244, 137, 236)" fill-opacity="0.49"/><path d="M103,190L88,189L100,192Z" fill="rgb(204, 160, 218)" fill-opacity="0.40"/><path d="M77,246L1,277L3,212Z" fill="rgb(9, 11, 12)" fill-opacity="0.47"/><path d="M233,96L266,89L222,91Z" fill="rgb(177, 184, 126)" fill-opacity="0.50"/><path d="M110,57L116,91L132,74Z" fill="rgb(128, 54, 99)" fill-opacity="0.51"/><path d="M183,216L198,225L193,209Z" fill="rgb(223, 165, 145)" fill-opacity="0.51"/><path d="M252,58L229,61L251,70Z" fill="rgb(249, 242, 225)" fill-opacity="0.56"/><path d="M240,236L222,227L246,230Z" fill="rgb(227, 134, 118)" fill-opacity="0.51"/><path d="M12,62L-4,63L7,40Z" fill="rgb(241, 226, 241)" fill-opacity="0.48"/><path d="M185,215L186,262L175,183Z" fill="rgb(140, 54, 103)" fill-opacity="0.52"/><path d="M18,17L-22,32L8,-11Z" fill="rgb(252, 250, 252)" fill-opacity="0.56"/><path d="M49,195L51,200L17,202Z" fill="rgb(234, 167, 242)" fill-opacity="0.47"/><path d="M199,65L195,44L219,48Z" fill="rgb(226, 212, 148)" fill-opacity="0.52"/><path d="M70,161L72,179L43,160Z" fill="rgb(150, 20, 71)" fill-opacity="0.28"/><path d="M257,81L243,79L247,109Z" fill="rgb(179, 151, 107)" fill-opacity="0.46"/><path d="M183,118L192,129L201,112Z" fill="rgb(189, 104, 109)" fill-opacity="0.56"/><path d="M47,7L49,-12L15,-2Z" fill="rgb(212, 17, 59)" fill-opacity="0.56"/><path d="M188,198L177,151L181,123Z" fill="rgb(219, 128, 136)" fill-opacity="0.49"/><path d="M239,245L258,207L247,280Z" fill="rgb(255, 220, 231)" fill-opacity="0.41"/><path d="M113,18L87,40L99,21Z" fill="rgb(155, 73, 94)" fill-opacity="0.43"/><path d="M228,100L198,88L225,117Z" fill="rgb(166, 150, 45)" fill-opacity="0.28"/><path d="M57,208L69,203L58,199Z" fill="rgb(156, 104, 120)" fill-opacity="0.54"/><path d="M192,97L192,87L168,123Z" fill="rgb(188, 62, 78)" fill-opacity="0.39"/><path d="M141,16L173,44L161,45Z" fill="rgb(75, 49, 58)" fill-opacity="0.68"/><path d="M144,3L130,2L164,24Z" fill="rgb(112, 49, 90)" fill-opacity="0.57"/><path d="M142,164L135,182L157,168Z" fill="rgb(122, 93, 96)" fill-opacity="0.53"/><path d="M91,152L87,147L72,155Z" fill="rgb(218, 83, 225)" fill-opacity="0.60"/><path d="M211,59L190,45L202,75Z" fill="rgb(224, 212, 160)" fill-opacity="0.64"/></svg>